# xmcd
# 
# Track frame offsets:
#   150
#   11091
#   22963
#   34558
#   52769
#   65145
#   75634
#   90079
#   104296
#   116950
#   125796
#   135667
#   148753
#   162385
#   175115
# 
# Disc length: 2531 seconds
# 
# Revision: 0
# Processed by: cddbd v1.5.2PL0 Copyright (c) Steve Scherf et al.
# Submitted via: VOLTOCDX V1.0.24 
# 
DISCID=c409e10f
DTITLE=HANK WILLIAMS - CB-9307
DYEAR=2010
DGENRE=Karaoke
TTITLE0=Rocking Chair Money - Hank Williams, Sr.
TTITLE1=Please Don't Let Me Love You - Hank Williams, Sr.
TTITLE2=Someday You'll Call My Name - Hank Williams, Sr.
TTITLE3=Cool Water - Hank Williams, Sr.
TTITLE4=First Year Blues - Hank Williams, Sr.
TTITLE5=Alone And Forsaken - Hank Williams, Sr.
TTITLE6=Lost Highway - Hank Williams, Sr.
TTITLE7=There's A Tear In My Beer - Hank Williams, Sr.
TTITLE8=Weary Blues From Waiting - Hank Williams, Sr.
TTITLE9=I Can't Get You Off My Mind - Hank Williams, Sr.
TTITLE10=Sing,Sing,Sing - Hank Williams, Sr.
TTITLE11=Message To My Mother - Hank Williams, Sr.
TTITLE12=Wealth Won't Save Your Soul - Hank Williams, Sr.
TTITLE13=Mansion On The Hill, A - Hank Williams, Sr.
TTITLE14=Ramblin' Man - Hank Williams, Sr.
EXTD=
EXTT0=
EXTT1=
EXTT2=
EXTT3=
EXTT4=
EXTT5=
EXTT6=
EXTT7=
EXTT8=
EXTT9=
EXTT10=
EXTT11=
EXTT12=
EXTT13=
EXTT14=
PLAYORDER=
